<?xml version="1.0" encoding="UTF-8"?>
<svg xmlns="http://www.w3.org/2000/svg" version="1.1" xmlns:xlink="http://www.w3.org/1999/xlink" viewBox="0 0 250 250">
  <!-- Generator: Adobe Illustrator 30.2.1, SVG Export Plug-In . SVG Version: 2.1.1 Build 1)  -->
  <defs>
    <style>
      .st0 {
        fill: #fff;
      }

      .st1 {
        fill: url(#_名称未設定グラデーション_10);
      }
    </style>
    <linearGradient id="_名称未設定グラデーション_10" data-name="名称未設定グラデーション 10" x1=".38" y1="251.62" x2="249.62" y2="2.38" gradientTransform="translate(0 252) scale(1 -1)" gradientUnits="userSpaceOnUse">
      <stop offset="0" stop-color="#3b82f6"/>
      <stop offset="1" stop-color="#4f46e5"/>
    </linearGradient>
  </defs>
  <g id="_レイヤー_2" data-name="レイヤー_2">
    <rect class="st1" x="0" y="0" width="250" height="250" rx="63.61" ry="63.61"/>
  </g>
  <g id="_レイヤー_1" data-name="レイヤー_1">
    <path class="st0" d="M207.74,192.54c15.24-19.18,23.9-41.2,23.9-66.54,0-23.95-7.67-45.53-21.61-64.14h0c-2.71,6.94-4.89,14.19-6.49,20.5,8.31,13.81,12.25,28.65,12.25,44.49,0,18.01-5.82,35.2-15.58,49.24l.07,5.67c.12,11.1-8.59,18.53-20.66,18.53h-4.81c-15.17,10-31.94,15.43-50.1,15.43-13.74,0-26.34-2.88-37.73-7.71-6.75,2.11-13.1,4.54-19.09,7.2,16.31,10.46,34.42,16.01,56.34,16.01,27.45,0,50.26-9.09,69.85-24.16"/>
    <path class="st0" d="M48.58,75.82c-.21-1.67-.21-3.4-.21-5.11-.29-12.23,6.6-20.35,18.7-20.35h7.86c15.29-10.87,31.09-16.91,49.66-16.91,13.35,0,25.66,3.26,37.25,8.5,8.17-2.53,15.07-5.28,20.08-7.67-16.2-11.36-34.6-15.5-58.88-15.5-55.86,0-104.69,47.04-104.69,106.87,0,24.15,7.48,45.02,20.28,63.16,2.54-7.06,4.37-14.37,6.08-20.55-8.3-14.29-11.31-28.22-11.31-42.56,0-17.9,5.88-35.68,15.18-49.89Z"/>
    <path class="st0" d="M217.35,25.36c-27.33,18.08-60.98,30.81-97.9,32.13h-52.32c-7.97,0-11.33,6.22-11.33,11.05v63.48c0,31.11-6.95,62.93-26.24,93.35,27.56-18.19,61.4-32.05,98.32-32.47h55.3c7.02,0,9.66-5.67,9.66-11.44v-59.09c0-31.87,6.47-60.08,24.29-96,1.06-1.83,1.77-2.06.23-1.01ZM179.55,155.06l-25.82-29.27c-2.17-2.53-3.23-1.48-4.83-.35l-13.92,16.84-26.77-32.42c-1.48-1.54-3.31-1.37-4.61.52l-33.59,42.47v-77.42c0-3.55,2.48-5.1,5.42-5.1h98.73c3.66,0,5.38,2.35,5.38,6.03v78.7s.01,0,.01,0Z"/>
    <path class="st0" d="M143.17,85.82c-8.3,0-10.3,8.42-10.3,10.82,0,7.6,5.93,11.59,10.18,11.59,8.41,0,11.01-7.19,11.01-10.86,0-7.32-5.64-11.55-10.88-11.55Z"/>
  </g>
</svg>