<?xml version="1.0" encoding="UTF-8"?>
<svg xmlns="http://www.w3.org/2000/svg" version="1.1" xmlns:xlink="http://www.w3.org/1999/xlink" viewBox="0 0 250 250">
  <!-- Generator: Adobe Illustrator 30.2.1, SVG Export Plug-In . SVG Version: 2.1.1 Build 1)  -->
  <defs>
    <style>
      .st0 {
        stroke: #fff;
        stroke-miterlimit: 10;
      }

      .st0, .st1 {
        fill: #fff;
      }

      .st2 {
        fill: url(#_名称未設定グラデーション_10);
      }
    </style>
    <linearGradient id="_名称未設定グラデーション_10" data-name="名称未設定グラデーション 10" x1=".38" y1="251.62" x2="249.62" y2="2.38" gradientTransform="translate(0 252) scale(1 -1)" gradientUnits="userSpaceOnUse">
      <stop offset="0" stop-color="#3b82f6"/>
      <stop offset="1" stop-color="#4f46e5"/>
    </linearGradient>
  </defs>
  <g id="_レイヤー_2" data-name="レイヤー_2">
    <rect class="st2" x="0" y="0" width="250" height="250" rx="63.61" ry="63.61"/>
  </g>
  <g id="_レイヤー_1" data-name="レイヤー_1">
    <path class="st1" d="M165.2,45.7c-2.22,5.69-4.01,11.63-5.32,16.8,6.81,11.32,10.04,23.48,10.04,36.46,0,14.76-4.77,28.85-12.77,40.36l.06,4.65c.1,9.1-7.04,15.19-16.93,15.19h-3.94c-12.43,8.2-26.18,12.65-41.06,12.65-11.26,0-21.59-2.36-30.92-6.32-5.53,1.73-10.74,3.72-15.65,5.9,13.37,8.57,28.21,13.12,46.18,13.12,22.5,0,41.19-7.45,57.25-19.8l18.68,18.28,11.1-11.56-18.6-18.62c12.49-15.72,19.59-33.77,19.59-54.54,0-19.63-6.29-37.32-17.71-52.57h0Z"/>
    <path class="st1" d="M32.88,57.15c-.17-1.37-.17-2.79-.17-4.19-.24-10.02,5.41-16.68,15.33-16.68h6.44c12.53-8.91,25.48-13.86,40.7-13.86,10.94,0,21.03,2.67,30.53,6.97,6.7-2.07,12.35-4.33,16.46-6.29-13.28-9.31-28.36-12.7-48.26-12.7C48.13,10.4,8.11,48.95,8.11,97.99c0,19.79,6.13,36.9,16.62,51.77,2.08-5.79,3.58-11.78,4.98-16.84-6.8-11.71-9.27-23.13-9.27-34.88,0-14.67,4.82-29.24,12.44-40.89Z"/>
    <path class="st1" d="M171.2,15.79c-22.4,14.82-49.98,25.25-80.24,26.33h-42.88c-6.53,0-9.29,5.1-9.29,9.06v52.03c0,25.5-5.7,51.58-21.51,76.51,22.59-14.91,50.32-26.27,80.58-26.61h45.32c5.75,0,7.92-4.65,7.92-9.38v-48.43c0-26.12,5.3-49.24,19.91-78.68.87-1.5,1.45-1.69.19-.83ZM140.22,122.09l-21.16-23.99c-1.78-2.07-2.65-1.21-3.96-.29l-11.41,13.8-21.94-26.57c-1.21-1.26-2.71-1.12-3.78.43l-27.53,34.81v-63.45c0-2.91,2.03-4.18,4.44-4.18h80.92c3,0,4.41,1.93,4.41,4.94v64.5s0,0,0,0Z"/>
    <path class="st1" d="M110.4,65.34c-6.8,0-8.44,6.9-8.44,8.87,0,6.23,4.86,9.5,8.34,9.5,6.89,0,9.02-5.89,9.02-8.9,0-6-4.62-9.47-8.92-9.47Z"/>
    <path class="st0" d="M226.54,201.44l-48.63-44.29c-1.83-1.74-2.95-.81-4.16.5l-16.11,17.39c-1.4,1.55-2.32,2.91-.63,4.6l46.8,44.63c7.81,7.54,18.1,4.48,22.68-1.36,4.82-6.04,5.49-15.87.05-21.47Z"/>
  </g>
</svg>